<svg viewBox="0 0 100 100" width="400" height="400" xmlns="http://www.w3.org/2000/svg"><g transform="translate(50,50)"><g transform="rotate(0)"><circle cx="-25" cy="-25" r="8" fill="rgba(0,100,200,0.5)" /><path d="M -20,-15 A 25 25 0 0 0 10 10 A 35 35 0 0 1 -20,-15 Z" fill="rgba(200,0,0,0.5)" /></g><g transform="rotate(72)"><circle cx="-25" cy="-25" r="8" fill="rgba(0,100,200,0.5)" /><path d="M -20,-15 A 25 25 0 0 0 10 10 A 35 35 0 0 1 -20,-15 Z" fill="rgba(200,0,0,0.5)" /></g><g transform="rotate(144)"><circle cx="-25" cy="-25" r="8" fill="rgba(0,100,200,0.5)" /><path d="M -20,-15 A 25 25 0 0 0 10 10 A 35 35 0 0 1 -20,-15 Z" fill="rgba(200,0,0,0.5)" /></g><g transform="rotate(216)"><circle cx="-25" cy="-25" r="8" fill="rgba(0,100,200,0.5)" /><path d="M -20,-15 A 25 25 0 0 0 10 10 A 35 35 0 0 1 -20,-15 Z" fill="rgba(200,0,0,0.5)" /></g><g transform="rotate(288)"><circle cx="-25" cy="-25" r="8" fill="rgba(0,100,200,0.5)" /><path d="M -20,-15 A 25 25 0 0 0 10 10 A 35 35 0 0 1 -20,-15 Z" fill="rgba(200,0,0,0.5)" /></g></g></svg>